<svg width="148" height="40" viewBox="0 0 148 40" fill="none" xmlns="http://www.w3.org/2000/svg">
<g filter="url(#filter0_d)">
<path d="M50.112 19.088C50.112 19.472 50.088 19.872 50.04 20.288H40.752C40.816 21.12 41.08 21.76 41.544 22.208C42.024 22.64 42.608 22.856 43.296 22.856C44.32 22.856 45.032 22.424 45.432 21.56H49.8C49.576 22.44 49.168 23.232 48.576 23.936C48 24.64 47.272 25.192 46.392 25.592C45.512 25.992 44.528 26.192 43.44 26.192C42.128 26.192 40.96 25.912 39.936 25.352C38.912 24.792 38.112 23.992 37.536 22.952C36.96 21.912 36.672 20.696 36.672 19.304C36.672 17.912 36.952 16.696 37.512 15.656C38.088 14.616 38.888 13.816 39.912 13.256C40.936 12.696 42.112 12.416 43.44 12.416C44.736 12.416 45.888 12.688 46.896 13.232C47.904 13.776 48.688 14.552 49.248 15.56C49.824 16.568 50.112 17.744 50.112 19.088ZM45.912 18.008C45.912 17.304 45.672 16.744 45.192 16.328C44.712 15.912 44.112 15.704 43.392 15.704C42.704 15.704 42.12 15.904 41.64 16.304C41.176 16.704 40.888 17.272 40.776 18.008H45.912ZM51.4611 19.28C51.4611 17.904 51.7171 16.696 52.2291 15.656C52.7571 14.616 53.4691 13.816 54.3651 13.256C55.2611 12.696 56.2611 12.416 57.3651 12.416C58.2451 12.416 59.0451 12.6 59.7651 12.968C60.5011 13.336 61.0771 13.832 61.4931 14.456V8.24H65.5971V26H61.4931V24.08C61.1091 24.72 60.5571 25.232 59.8371 25.616C59.1331 26 58.3091 26.192 57.3651 26.192C56.2611 26.192 55.2611 25.912 54.3651 25.352C53.4691 24.776 52.7571 23.968 52.2291 22.928C51.7171 21.872 51.4611 20.656 51.4611 19.28ZM61.4931 19.304C61.4931 18.28 61.2051 17.472 60.6291 16.88C60.0691 16.288 59.3811 15.992 58.5651 15.992C57.7491 15.992 57.0531 16.288 56.4771 16.88C55.9171 17.456 55.6371 18.256 55.6371 19.28C55.6371 20.304 55.9171 21.12 56.4771 21.728C57.0531 22.32 57.7491 22.616 58.5651 22.616C59.3811 22.616 60.0691 22.32 60.6291 21.728C61.2051 21.136 61.4931 20.328 61.4931 19.304ZM75.2861 16.016H73.0781V26H68.9741V16.016H67.4861V12.608H68.9741V12.224C68.9741 10.576 69.4461 9.328 70.3901 8.48C71.3341 7.616 72.7181 7.184 74.5421 7.184C74.8461 7.184 75.0701 7.192 75.2141 7.208V10.688C74.4301 10.64 73.8781 10.752 73.5581 11.024C73.2381 11.296 73.0781 11.784 73.0781 12.488V12.608H75.2861V16.016ZM81.3186 8.24V26H77.2146V8.24H81.3186ZM90.3887 26.192C89.0767 26.192 87.8927 25.912 86.8367 25.352C85.7967 24.792 84.9727 23.992 84.3647 22.952C83.7727 21.912 83.4767 20.696 83.4767 19.304C83.4767 17.928 83.7807 16.72 84.3887 15.68C84.9967 14.624 85.8287 13.816 86.8847 13.256C87.9407 12.696 89.1247 12.416 90.4367 12.416C91.7487 12.416 92.9327 12.696 93.9887 13.256C95.0447 13.816 95.8767 14.624 96.4847 15.68C97.0927 16.72 97.3967 17.928 97.3967 19.304C97.3967 20.68 97.0847 21.896 96.4607 22.952C95.8527 23.992 95.0127 24.792 93.9407 25.352C92.8847 25.912 91.7007 26.192 90.3887 26.192ZM90.3887 22.64C91.1727 22.64 91.8367 22.352 92.3807 21.776C92.9407 21.2 93.2207 20.376 93.2207 19.304C93.2207 18.232 92.9487 17.408 92.4047 16.832C91.8767 16.256 91.2207 15.968 90.4367 15.968C89.6367 15.968 88.9727 16.256 88.4447 16.832C87.9167 17.392 87.6527 18.216 87.6527 19.304C87.6527 20.376 87.9087 21.2 88.4207 21.776C88.9487 22.352 89.6047 22.64 90.3887 22.64ZM118.798 12.608L115.174 26H110.638L108.526 17.312L106.342 26H101.83L98.1819 12.608H102.286L104.182 22.184L106.438 12.608H110.782L113.062 22.136L114.934 12.608H118.798ZM132.987 19.088C132.987 19.472 132.963 19.872 132.915 20.288H123.627C123.691 21.12 123.955 21.76 124.419 22.208C124.899 22.64 125.483 22.856 126.171 22.856C127.195 22.856 127.907 22.424 128.307 21.56H132.675C132.451 22.44 132.043 23.232 131.451 23.936C130.875 24.64 130.147 25.192 129.267 25.592C128.387 25.992 127.403 26.192 126.315 26.192C125.003 26.192 123.835 25.912 122.811 25.352C121.787 24.792 120.987 23.992 120.411 22.952C119.835 21.912 119.547 20.696 119.547 19.304C119.547 17.912 119.827 16.696 120.387 15.656C120.963 14.616 121.763 13.816 122.787 13.256C123.811 12.696 124.987 12.416 126.315 12.416C127.611 12.416 128.763 12.688 129.771 13.232C130.779 13.776 131.563 14.552 132.123 15.56C132.699 16.568 132.987 17.744 132.987 19.088ZM128.787 18.008C128.787 17.304 128.547 16.744 128.067 16.328C127.587 15.912 126.987 15.704 126.267 15.704C125.579 15.704 124.995 15.904 124.515 16.304C124.051 16.704 123.763 17.272 123.651 18.008H128.787ZM139.256 14.84C139.736 14.104 140.336 13.528 141.056 13.112C141.776 12.68 142.576 12.464 143.456 12.464V16.808H142.328C141.304 16.808 140.536 17.032 140.024 17.48C139.512 17.912 139.256 18.68 139.256 19.784V26H135.152V12.608H139.256V14.84Z" fill="#1A3452" fill-opacity="0.96"/>
</g>
<g filter="url(#filter1_d)">
<rect x="4" y="3" width="30" height="29" fill="#1A3452"/>
<rect x="4.5" y="3.5" width="29" height="28" stroke="#1A3452"/>
</g>
<path d="M22.08 26L18.576 19.64H17.592V26H13.488V9.152H20.376C21.704 9.152 22.832 9.384 23.76 9.848C24.704 10.312 25.408 10.952 25.872 11.768C26.336 12.568 26.568 13.464 26.568 14.456C26.568 15.576 26.248 16.576 25.608 17.456C24.984 18.336 24.056 18.96 22.824 19.328L26.712 26H22.08ZM17.592 16.736H20.136C20.888 16.736 21.448 16.552 21.816 16.184C22.2 15.816 22.392 15.296 22.392 14.624C22.392 13.984 22.2 13.48 21.816 13.112C21.448 12.744 20.888 12.56 20.136 12.56H17.592V16.736Z" fill="#FF0B19"/>
<defs>
<filter id="filter0_d" x="32.672" y="7.18408" width="114.784" height="27.008" filterUnits="userSpaceOnUse" color-interpolation-filters="sRGB">
<feFlood flood-opacity="0" result="BackgroundImageFix"/>
<feColorMatrix in="SourceAlpha" type="matrix" values="0 0 0 0 0 0 0 0 0 0 0 0 0 0 0 0 0 0 127 0"/>
<feOffset dy="4"/>
<feGaussianBlur stdDeviation="2"/>
<feColorMatrix type="matrix" values="0 0 0 0 0 0 0 0 0 0 0 0 0 0 0 0 0 0 0.25 0"/>
<feBlend mode="normal" in2="BackgroundImageFix" result="effect1_dropShadow"/>
<feBlend mode="normal" in="SourceGraphic" in2="effect1_dropShadow" result="shape"/>
</filter>
<filter id="filter1_d" x="0" y="3" width="38" height="37" filterUnits="userSpaceOnUse" color-interpolation-filters="sRGB">
<feFlood flood-opacity="0" result="BackgroundImageFix"/>
<feColorMatrix in="SourceAlpha" type="matrix" values="0 0 0 0 0 0 0 0 0 0 0 0 0 0 0 0 0 0 127 0"/>
<feOffset dy="4"/>
<feGaussianBlur stdDeviation="2"/>
<feColorMatrix type="matrix" values="0 0 0 0 0 0 0 0 0 0 0 0 0 0 0 0 0 0 0.25 0"/>
<feBlend mode="normal" in2="BackgroundImageFix" result="effect1_dropShadow"/>
<feBlend mode="normal" in="SourceGraphic" in2="effect1_dropShadow" result="shape"/>
</filter>
</defs>
</svg>
